<?xml version="1.0" standalone="no"?>
<!DOCTYPE svg PUBLIC "-//W3C//DTD SVG 20010904//EN"
 "http://www.w3.org/TR/2001/REC-SVG-20010904/DTD/svg10.dtd">
<svg version="1.0" xmlns="http://www.w3.org/2000/svg"
 width="512.000000pt" height="512.000000pt" viewBox="0 0 512.000000 512.000000"
 preserveAspectRatio="xMidYMid meet">

<g transform="translate(0.000000,512.000000) scale(0.100000,-0.100000)"
stroke="none">
<path d="M2375 5109 c-319 -44 -601 -184 -830 -414 -256 -255 -401 -575 -421
-930 -7 -114 9 -202 51 -285 29 -58 30 -60 9 -60 -8 0 -39 -24 -68 -52 -74
-75 -78 -97 -74 -364 l3 -219 32 -67 c17 -37 50 -87 73 -112 51 -56 160 -112
233 -121 l53 -7 11 -106 c16 -140 44 -246 98 -360 105 -222 265 -395 469 -508
l66 -36 0 -93 0 -92 -37 -7 c-21 -3 -57 -6 -80 -6 -144 0 -520 -72 -711 -136
-228 -76 -394 -169 -527 -295 -65 -62 -77 -79 -113 -167 -70 -169 -115 -353
-128 -530 -7 -88 -6 -91 19 -116 l26 -26 576 0 575 0 0 80 0 80 -199 0 c-198
0 -199 0 -205 23 -3 12 -6 34 -6 48 0 49 -40 184 -76 258 -47 95 -144 194
-236 242 -38 19 -68 37 -68 40 0 7 98 72 170 112 202 113 593 206 975 232 l90
6 59 -60 c57 -58 59 -61 42 -79 -13 -15 -35 -21 -95 -24 -143 -8 -212 -71
-251 -228 -20 -83 -24 -90 -47 -90 -28 0 -73 -41 -73 -67 0 -10 19 -133 42
-273 36 -219 45 -258 65 -277 l22 -23 671 0 671 0 23 23 c19 19 28 59 66 285
48 289 47 304 -10 325 -17 6 -30 18 -30 26 0 76 -89 186 -170 210 -25 7 -87
40 -138 74 l-93 60 59 60 59 59 139 -11 c439 -36 779 -131 1013 -281 44 -29
81 -55 81 -59 0 -4 -28 -21 -62 -37 -89 -41 -194 -148 -241 -244 -37 -75 -77
-210 -77 -259 0 -14 -3 -36 -6 -48 -6 -23 -7 -23 -205 -23 l-199 0 0 -80 0
-80 575 0 576 0 26 26 c25 25 25 28 18 117 -13 180 -57 360 -127 529 -36 88
-48 105 -113 167 -90 85 -163 135 -291 199 -221 111 -527 191 -845 222 -63 6
-138 13 -166 16 l-53 5 0 95 0 94 43 21 c125 63 260 176 352 294 142 181 222
386 241 613 l7 80 53 7 c74 9 182 65 234 121 23 25 56 75 73 112 l32 67 3 219
c3 153 0 232 -9 263 -14 51 -89 140 -125 149 -13 3 -24 8 -24 10 0 3 11 27 25
54 43 85 58 171 51 290 -22 353 -167 672 -421 925 -209 210 -459 344 -746 400
-100 20 -356 28 -454 14z m435 -173 c455 -99 806 -405 958 -836 58 -165 85
-372 62 -468 -10 -46 -14 -51 -30 -42 -10 6 -79 10 -153 10 l-134 0 -12 55
c-42 185 -202 354 -389 409 -59 17 -55 20 -71 -54 -18 -77 -15 -87 27 -100
106 -34 212 -126 257 -223 38 -80 36 -84 -37 -80 -104 6 -320 23 -365 29 l-41
6 -17 74 c-45 205 -198 370 -393 428 -59 17 -55 20 -71 -54 -18 -77 -15 -87
27 -100 106 -34 212 -126 257 -223 25 -53 32 -97 16 -97 -5 0 -60 13 -123 29
-234 59 -396 143 -469 244 -16 22 -29 51 -29 64 0 13 -11 35 -25 48 -52 53
-135 15 -135 -62 0 -120 -146 -274 -344 -363 -56 -26 -78 -30 -151 -30 -48 0
-95 -4 -105 -10 -43 -23 -51 166 -13 349 90 436 408 799 833 949 75 26 181 52
275 66 63 9 322 -2 395 -18z m-734 -1187 c27 -22 98 -65 159 -95 l109 -54
-249 0 -249 0 57 51 c32 28 71 71 88 95 16 24 32 44 33 44 2 0 26 -18 52 -41z
m1604 -571 l0 -262 -57 -58 -57 -58 -405 0 -404 0 -43 40 -44 40 -110 0 -110
0 -44 -40 -43 -40 -404 0 -403 0 -58 57 -58 57 0 263 0 263 1120 0 1120 0 0
-262z m-2400 -114 l0 -216 80 -82 c79 -81 101 -126 64 -126 -77 0 -189 88
-212 166 -8 26 -12 112 -12 233 0 190 0 192 25 216 13 14 31 25 40 25 13 0 15
-28 15 -216z m2615 191 c25 -24 25 -26 25 -216 0 -121 -4 -207 -12 -233 -23
-78 -135 -166 -212 -166 -37 0 -15 45 64 126 l80 82 0 216 c0 188 2 216 15
216 9 0 27 -11 40 -25z m-1249 -575 l44 -40 416 0 417 0 -6 -157 c-3 -113 -11
-180 -25 -234 -94 -354 -362 -617 -718 -706 -105 -26 -334 -24 -441 4 -353 93
-611 351 -705 702 -14 54 -22 121 -25 234 l-6 157 417 0 417 0 42 40 c36 33
49 40 86 40 37 0 50 -6 87 -40z m-230 -1310 c133 -18 285 -9 414 24 l50 13 0
-86 0 -86 -97 -97 -98 -98 -125 0 -125 0 -97 97 -98 98 0 86 0 86 50 -13 c28
-7 85 -18 126 -24z m479 -570 c78 -52 130 -80 148 -80 30 0 77 -39 77 -65 0
-13 -60 -15 -549 -15 l-549 0 14 58 c22 86 45 102 150 102 l85 0 42 40 42 39
210 1 210 0 120 -80z m-2027 -201 c124 -61 207 -185 236 -349 8 -47 13 -86 12
-88 -2 -1 -109 -1 -238 0 l-235 3 18 106 c17 103 67 277 95 332 18 35 37 34
112 -4z m3530 -91 c34 -103 57 -200 76 -325 l3 -23 -237 0 -238 0 5 42 c23
191 112 335 248 400 98 46 97 47 143 -94z m-2308 -30 c0 -2 11 -68 25 -148 14
-80 25 -151 25 -157 0 -9 -22 -13 -75 -13 -86 0 -74 -19 -105 166 -28 168 -33
154 55 154 41 0 75 -1 75 -2z m390 -158 l0 -160 -88 0 -88 0 -23 142 c-12 79
-24 151 -27 161 -5 15 5 17 110 17 l116 0 0 -160z m380 144 c0 -17 -36 -240
-45 -281 -5 -22 -10 -23 -90 -23 l-85 0 0 160 0 160 110 0 c95 0 110 -2 110
-16z m320 0 c0 -17 -36 -240 -45 -282 -5 -20 -11 -22 -80 -22 -88 0 -83 -14
-55 154 31 185 19 166 105 166 63 0 75 -3 75 -16z"/>
<path d="M1625 3335 c-24 -23 -25 -31 -25 -136 0 -144 11 -181 75 -244 69 -69
94 -75 327 -75 234 0 266 8 331 80 56 62 67 102 67 239 0 105 -1 113 -25 136
l-24 25 -351 0 -351 0 -24 -25z m615 -190 c0 -46 -4 -60 -25 -80 -24 -25 -26
-25 -215 -25 -189 0 -191 0 -215 25 -21 20 -25 34 -25 80 l0 55 240 0 240 0 0
-55z"/>
<path d="M2745 3335 c-24 -23 -25 -31 -25 -136 0 -144 11 -181 75 -244 69 -69
94 -75 327 -75 234 0 266 8 331 80 56 62 67 102 67 239 0 105 -1 113 -25 136
l-24 25 -351 0 -351 0 -24 -25z m615 -190 c0 -46 -4 -60 -25 -80 -24 -25 -26
-25 -215 -25 -189 0 -191 0 -215 25 -21 20 -25 34 -25 80 l0 55 240 0 240 0 0
-55z"/>
<path d="M2804 2416 l6 -64 -127 -31 c-178 -42 -285 -60 -455 -73 l-148 -12 0
-79 0 -80 113 7 c207 13 421 49 610 103 l89 25 26 -24 c66 -61 175 -108 247
-108 l35 0 0 80 c0 75 -1 80 -21 80 -106 0 -219 113 -219 219 0 20 -5 21 -81
21 l-82 0 7 -64z"/>
<path d="M1840 2160 l0 -80 80 0 80 0 0 80 0 80 -80 0 -80 0 0 -80z"/>
<path d="M720 2227 c-49 -16 -133 -102 -148 -153 -28 -94 -8 -169 63 -239 102
-103 243 -101 338 5 93 103 90 228 -8 325 -70 71 -152 91 -245 62z m135 -172
c16 -15 25 -36 25 -55 0 -19 -9 -40 -25 -55 -15 -16 -36 -25 -55 -25 -19 0
-40 9 -55 25 -16 15 -25 36 -25 55 0 19 9 40 25 55 15 16 36 25 55 25 19 0 40
-9 55 -25z"/>
<path d="M1200 1827 c-49 -16 -133 -102 -148 -153 -28 -94 -8 -169 63 -239
102 -103 243 -101 338 5 93 103 90 228 -8 325 -70 71 -152 91 -245 62z m135
-172 c50 -49 15 -135 -55 -135 -19 0 -40 9 -55 25 -16 15 -25 36 -25 55 0 19
9 40 25 55 15 16 36 25 55 25 19 0 40 -9 55 -25z"/>
<path d="M800 1520 l0 -80 80 0 80 0 0 80 0 80 -80 0 -80 0 0 -80z"/>
<path d="M560 1280 l0 -80 80 0 80 0 0 80 0 80 -80 0 -80 0 0 -80z"/>
</g>
</svg>
   