<?xml version="1.0" standalone="no"?>
<!DOCTYPE svg PUBLIC "-//W3C//DTD SVG 20010904//EN"
 "http://www.w3.org/TR/2001/REC-SVG-20010904/DTD/svg10.dtd">
<svg version="1.0" xmlns="http://www.w3.org/2000/svg"
 width="512.000000pt" height="512.000000pt" viewBox="0 0 512.000000 512.000000"
 preserveAspectRatio="xMidYMid meet">

<g transform="translate(0.000000,512.000000) scale(0.100000,-0.100000)"
fill="#1f4ed8" stroke="none">
<path d="M2503 5021 c-26 -16 -57 -70 -172 -299 -91 -180 -149 -285 -165 -295
-15 -10 -138 -32 -340 -61 -174 -25 -325 -50 -336 -56 -42 -23 -62 -94 -37
-136 7 -11 111 -114 232 -229 121 -114 226 -221 234 -236 13 -27 10 -55 -37
-327 -29 -163 -52 -310 -52 -326 0 -41 58 -96 101 -96 22 0 122 46 315 145
190 98 293 145 315 145 21 0 124 -47 314 -145 191 -98 293 -145 315 -145 42 0
100 55 100 96 0 16 -23 163 -52 326 -47 272 -50 300 -37 326 8 16 113 122 234
237 121 114 225 217 232 229 31 54 -2 129 -64 145 -21 5 -171 28 -333 51 -172
24 -304 47 -317 55 -13 9 -79 129 -163 296 -149 295 -166 319 -230 319 -14 0
-39 -9 -57 -19z"/>
<path d="M680 3982 c-19 -15 -31 -57 -72 -243 -27 -123 -55 -233 -62 -244 -9
-13 -94 -55 -226 -110 -213 -90 -240 -107 -240 -153 0 -37 43 -70 233 -181 98
-57 183 -113 189 -125 6 -11 18 -120 26 -241 8 -121 18 -230 23 -243 11 -28
50 -46 83 -38 14 3 83 59 153 123 221 202 210 193 245 193 18 0 124 -22 236
-50 163 -39 208 -47 231 -39 27 10 51 44 51 74 0 7 -40 108 -90 223 -49 116
-90 217 -90 225 0 8 50 98 112 198 151 250 144 234 125 275 -10 20 -26 36 -41
40 -14 3 -110 -3 -213 -15 -103 -12 -209 -21 -235 -21 l-47 0 -150 179 c-82
98 -157 181 -166 185 -28 10 -52 7 -75 -12z"/>
<path d="M4362 3993 c-7 -3 -80 -85 -162 -183 -101 -120 -157 -180 -172 -182
-13 -2 -119 8 -236 20 -117 13 -224 21 -238 18 -15 -4 -31 -20 -41 -40 -19
-41 -26 -25 125 -275 62 -100 112 -190 112 -200 0 -9 -41 -110 -90 -226 -50
-115 -90 -217 -90 -225 0 -23 29 -60 55 -70 17 -6 80 5 229 41 114 27 220 49
236 49 31 0 37 -5 290 -234 46 -42 95 -79 108 -83 31 -7 70 11 81 39 4 13 15
122 23 244 9 121 20 230 26 240 6 11 91 67 189 124 190 111 233 145 233 182 0
47 -27 64 -241 154 -129 54 -217 97 -225 109 -7 11 -35 121 -62 245 -41 185
-53 227 -72 242 -22 17 -52 22 -78 11z"/>
<path d="M2280 3033 l-266 -137 311 -1397 c170 -769 313 -1395 316 -1391 6 7
539 2735 539 2760 0 6 -9 12 -20 12 -11 0 -147 65 -303 145 -157 80 -291 145
-298 145 -8 0 -133 -62 -279 -137z"/>
<path d="M979 2597 c-201 -185 -267 -245 -283 -254 -15 -8 15 -67 285 -544
378 -668 718 -1281 838 -1509 51 -96 90 -161 87 -145 -20 119 -147 932 -250
1600 l-122 800 -35 -3 c-19 -1 -126 20 -239 48 -112 27 -211 50 -220 50 -8 -1
-36 -20 -61 -43z"/>
<path d="M3875 2594 c-93 -25 -197 -46 -230 -47 l-60 -3 -7 -49 c-122 -805
-340 -2210 -363 -2345 -4 -23 22 20 75 120 148 281 436 800 897 1614 225 396
252 450 237 459 -9 5 -88 74 -175 153 -112 103 -164 144 -181 143 -13 0 -99
-21 -193 -45z"/>
</g>
</svg>
    